HIERARCHY
ROOT Character1_Hips
{
  OFFSET 70.916 93.6953 -99.6988
  CHANNELS 6 Xposition Yposition Zposition Zrotation Xrotation Yrotation
  JOINT Character1_Spine
  {
    OFFSET 0 8.754 -1.339
    CHANNELS 3 Zrotation Xrotation Yrotation
    JOINT Character1_Spine1
    {
      OFFSET 0 10.855 -0.645
      CHANNELS 3 Zrotation Xrotation Yrotation
      JOINT Character1_LeftShoulder
      {
        OFFSET 1.467 27.745 1.178
        CHANNELS 3 Zrotation Xrotation Yrotation
        JOINT Character1_LeftArm
        {
          OFFSET 18.486 -1.858 0.275
          CHANNELS 3 Zrotation Xrotation Yrotation
          JOINT Character1_LeftForeArm
          {
            OFFSET 31.798 2.36 2.921
            CHANNELS 3 Zrotation Xrotation Yrotation
            JOINT Character1_LeftHand
            {
              OFFSET 29.001 1.642 2.112
              CHANNELS 3 Zrotation Xrotation Yrotation
              End Site
              {
                OFFSET 7.3734 -1.0302 1.64982
              }
            }
            JOINT ForeArmBoxL
            {
              OFFSET 14.9879 1.12959 0.0233554
              CHANNELS 3 Zrotation Xrotation Yrotation
              End Site
              {
                OFFSET 0 0 0
              }
            }
          }
          JOINT ArmBoxL
          {
            OFFSET 15.8286 1.72374 1.18509
            CHANNELS 3 Zrotation Xrotation Yrotation
            End Site
            {
              OFFSET 0 0 0
            }
          }
        }
        JOINT ShoulderBoxL
        {
          OFFSET 8.34438 1.0846 -0.108247
          CHANNELS 3 Zrotation Xrotation Yrotation
          End Site
          {
            OFFSET 0 0 0
          }
        }
      }
      JOINT Character1_RightShoulder
      {
        OFFSET -1.467 27.745 1.178
        CHANNELS 3 Zrotation Xrotation Yrotation
        JOINT Character1_RightArm
        {
          OFFSET -18.486 -1.858 0.275
          CHANNELS 3 Zrotation Xrotation Yrotation
          JOINT Character1_RightForeArm
          {
            OFFSET -31.798 2.35964 2.92082
            CHANNELS 3 Zrotation Xrotation Yrotation
            JOINT Character1_RightHand
            {
              OFFSET -29.0007 1.64167 2.112
              CHANNELS 3 Zrotation Xrotation Yrotation
              End Site
              {
                OFFSET -7.37366 -1.0295 1.65001
              }
            }
            JOINT ForeArmBoxR
            {
              OFFSET -14.9879 1.12995 0.0235372
              CHANNELS 3 Zrotation Xrotation Yrotation
              End Site
              {
                OFFSET 0 0 0
              }
            }
          }
          JOINT ArmBoxR
          {
            OFFSET -15.8286 1.72374 1.18509
            CHANNELS 3 Zrotation Xrotation Yrotation
            End Site
            {
              OFFSET 0 0 0
            }
          }
        }
        JOINT ShoulderBoxR
        {
          OFFSET -8.34438 1.0846 -0.108247
          CHANNELS 3 Zrotation Xrotation Yrotation
          End Site
          {
            OFFSET 0 0 0
          }
        }
      }
      JOINT Character1_Neck
      {
        OFFSET 0 30.836 0.626
        CHANNELS 3 Zrotation Xrotation Yrotation
        JOINT Character1_Head
        {
          OFFSET 0 8.074 3.498
          CHANNELS 3 Zrotation Xrotation Yrotation
          End Site
          {
            OFFSET 0 8.75051 -0.3664
          }
        }
        JOINT NeckBox
        {
          OFFSET 0 4.52749 1.86245
          CHANNELS 3 Zrotation Xrotation Yrotation
          End Site
          {
            OFFSET 0 0 0
          }
        }
      }
      JOINT TorsoBox
      {
        OFFSET 0 12.7155 1.00402
        CHANNELS 3 Zrotation Xrotation Yrotation
        End Site
        {
          OFFSET 0 0 0
        }
      }
    }
    JOINT SpineBox
    {
      OFFSET 0 5.28258 0.326123
      CHANNELS 3 Zrotation Xrotation Yrotation
      End Site
      {
        OFFSET 0 0 0
      }
    }
  }
  JOINT Character1_RightUpLeg
  {
    OFFSET -9.035 -4.63425 1.845
    CHANNELS 3 Zrotation Xrotation Yrotation
    JOINT Character1_RightLeg
    {
      OFFSET -0.919521 -40.345 1.155
      CHANNELS 3 Zrotation Xrotation Yrotation
      JOINT Character1_RightFoot
      {
        OFFSET 1.95452 -45.2655 -4.18888
        CHANNELS 3 Zrotation Xrotation Yrotation
        JOINT Character1_RightToeBase
        {
          OFFSET 1.87056 -6.69517 14.7145
          CHANNELS 3 Zrotation Xrotation Yrotation
          End Site
          {
            OFFSET 0 0 0
          }
        }
        JOINT TalusBoxR
        {
          OFFSET -0.257548 -3.72327 1.77314
          CHANNELS 3 Zrotation Xrotation Yrotation
          End Site
          {
            OFFSET 0 0 0
          }
        }
        JOINT FootPinkyBoxR
        {
          OFFSET -4.44001 -5.06132 12.2866
          CHANNELS 3 Zrotation Xrotation Yrotation
          End Site
          {
            OFFSET 0 0 0
          }
        }
        JOINT FootThumbBoxR
        {
          OFFSET 0.350101 -5.07916 13.5666
          CHANNELS 3 Zrotation Xrotation Yrotation
          End Site
          {
            OFFSET 0 0 0
          }
        }
      }
      JOINT TibiaBoxR
      {
        OFFSET 0.679521 -22.8458 -3.405
        CHANNELS 3 Zrotation Xrotation Yrotation
        End Site
        {
          OFFSET 0 0 0
        }
      }
    }
    JOINT FemurBoxR
    {
      OFFSET -0.557975 -20.9557 -1.11465
      CHANNELS 3 Zrotation Xrotation Yrotation
      End Site
      {
        OFFSET 0 0 0
      }
    }
  }
  JOINT Character1_LeftUpLeg
  {
    OFFSET 9.035 -4.63425 1.845
    CHANNELS 3 Zrotation Xrotation Yrotation
    JOINT Character1_LeftLeg
    {
      OFFSET 0.919521 -40.345 1.155
      CHANNELS 3 Zrotation Xrotation Yrotation
      JOINT Character1_LeftFoot
      {
        OFFSET -1.95452 -45.2655 -4.18888
        CHANNELS 3 Zrotation Xrotation Yrotation
        JOINT Character1_LeftToeBase
        {
          OFFSET -1.87056 -6.69517 14.7145
          CHANNELS 3 Zrotation Xrotation Yrotation
          End Site
          {
            OFFSET 0 0 0
          }
        }
        JOINT FootThumbBoxL
        {
          OFFSET -0.350101 -5.07916 13.5666
          CHANNELS 3 Zrotation Xrotation Yrotation
          End Site
          {
            OFFSET 0 0 0
          }
        }
        JOINT FootPinkyBoxL
        {
          OFFSET 4.44001 -5.06132 12.2866
          CHANNELS 3 Zrotation Xrotation Yrotation
          End Site
          {
            OFFSET 0 0 0
          }
        }
        JOINT TalusBoxL
        {
          OFFSET 0.257548 -3.72327 1.77314
          CHANNELS 3 Zrotation Xrotation Yrotation
          End Site
          {
            OFFSET 0 0 0
          }
        }
      }
      JOINT TibiaBoxL
      {
        OFFSET -0.679521 -22.8458 -3.405
        CHANNELS 3 Zrotation Xrotation Yrotation
        End Site
        {
          OFFSET 0 0 0
        }
      }
    }
    JOINT FemurBoxL
    {
      OFFSET 0.557975 -20.9557 -1.11465
      CHANNELS 3 Zrotation Xrotation Yrotation
      End Site
      {
        OFFSET 0 0 0
      }
    }
  }
  JOINT PelvisBox
  {
    OFFSET 0 0.0930822 -0.0838296
    CHANNELS 3 Zrotation Xrotation Yrotation
    End Site
    {
      OFFSET 0 0 0
    }
  }
}
MOTION
Frames:	8
Frame Time:	0.00833333
69.5631 93.5298 -96.4913 11.3553 -1.20938 -69.1378 1.98785e-16 -1.3418e-15 -3.18055e-15 -0.730249 -6.24902 4.98907 -2.18166e-07 1.88098e-07 1.7046e-06 -169.337 60.9478 89.6737 66.0497 78.2778 18.199 -0.61378 -13.1753 17.9341 -13.2576 -68.9783 -17.331 -6.92027 -72.5829 -11.2678 0.27423 -0.0473218 3.14463 -2.18166e-07 1.88098e-07 1.7046e-06 95.5424 -20.9962 -37.7455 11.9918 -5.71046 78.8483 -1.20981 3.61322 2.37174 -166.742 68.9783 162.669 -173.08 72.5829 168.732 179.726 0.0473218 -176.855 -7.95139e-16 -1.98785e-16 -6.36111e-15 -8.82781e-32 -7.95139e-16 -6.36111e-15 2.33273 -0.492534 12.6529 -3.27657e-16 0.528321 -2.83015e-15 -3.04307 -4.90284 3.71673 -4.09134 -4.34165 -8.60081 -0.0338656 5.45156 0.190971 -0.787265 -17.0685 -0.912908 -2.26087 -10.7759 0.742168 -178.531 -1.41374 -167.997 -179.276 -0.600381 -160.082 179.447 -1.12556 -169.995 -178 -5 -180 179.002 0.985149 179.879 -1.66968 -0.234357 5.69591 -1.83761 -7.22351 -1.25969 -5.18525 -3.55491 -3.81722 -0.0455764 -7.17498 -0.665671 0.553385 1.12556 10.0051 -0.724387 0.600381 19.9179 -1.46875 1.41374 12.0028 -2 5 -3.1661e-15 0.99792 -0.985149 -0.120973 -4.58182e-16 1.14868e-15 -2.44364e-15 
69.5895 93.5627 -96.5069 11.159 -1.14164 -69.0841 -3.97569e-16 -1.54058e-15 -0 -0.594573 -6.1349 5.01777 -2.18166e-07 1.88098e-07 1.7046e-06 -170.071 60.9242 90.6048 66.1205 78.1583 17.9689 -0.632866 -12.8989 17.6059 -13.2576 -68.9783 -17.331 -6.92027 -72.5829 -11.2678 0.27423 -0.0473218 3.14463 -2.18166e-07 1.88098e-07 1.7046e-06 95.4108 -21.2442 -37.6302 11.886 -5.73209 78.5618 -1.32628 3.64831 2.67401 -166.742 68.9783 162.669 -173.08 72.5829 168.732 179.726 0.0473218 -176.855 1.10348e-32 1.98785e-16 -3.18055e-15 -7.95139e-16 -7.95139e-16 -3.18055e-15 2.23935 -0.550656 12.6136 1.06126e-15 0.528321 -0 -2.88102 -4.66282 3.7519 -3.93763 -4.21972 -8.67474 -0.0250883 5.50387 0.185242 -0.814772 -17.0599 -0.958966 -2.23828 -10.6661 0.736643 -178.531 -1.41374 -167.997 -179.276 -0.600381 -160.082 179.447 -1.12556 -169.995 -178 -5 -180 179.002 0.985149 179.879 -1.53579 -0.355806 5.63997 -1.73559 -6.89993 -1.21102 -5.2709 -3.69991 -4.07323 -0.0425808 -6.93092 -0.642819 0.553385 1.12556 10.0051 -0.724387 0.600381 19.9179 -1.46875 1.41374 12.0028 -2 5 3.1661e-15 0.99792 -0.985149 -0.120973 1.37454e-15 -1.42218e-15 -0 
69.5885 93.6019 -96.5186 10.956 -1.23082 -69.1137 1.98785e-16 1.49089e-16 -3.18055e-15 -0.500533 -5.89468 5.09275 -2.18166e-07 1.88098e-07 1.7046e-06 -169.194 60.9704 89.4063 65.7875 78.3163 17.9814 -0.57424 -13.1368 18.2169 -13.2576 -68.9783 -17.331 -6.92027 -72.5829 -11.2678 0.27423 -0.0473218 3.14463 -2.18166e-07 1.88098e-07 1.7046e-06 95.3351 -21.5805 -37.4683 11.7258 -5.67679 78.3774 -1.43819 3.68173 2.96403 -166.742 68.9783 162.669 -173.08 72.5829 168.732 179.726 0.0473218 -176.855 -1.59028e-15 7.95139e-16 3.18055e-15 -3.31043e-32 5.96354e-16 3.18055e-15 1.97493 -0.542512 12.5528 -1.74267e-15 0.528321 -2.83015e-15 -2.86469 -4.40076 3.81221 -3.91022 -3.97543 -8.60781 -0.0192967 5.42969 0.178292 -0.871762 -16.9401 -1.07603 -2.30639 -10.9968 0.753034 -178.531 -1.41374 -167.997 -179.276 -0.600381 -160.082 179.447 -1.12556 -169.995 -178 -5 180 179.002 0.985149 179.879 -1.57648 -0.0790082 5.665 -1.62706 -7.00003 -1.15166 -5.28799 -3.87742 -3.93472 -0.0531356 -7.76821 -0.721408 0.553385 1.12556 10.0051 -0.724387 0.600381 19.9179 -1.46875 1.41374 12.0028 -2 5 -0 0.99792 -0.985149 -0.120973 1.52727e-16 3.28194e-16 -7.33091e-15 
69.594 93.6276 -96.5317 10.8109 -1.04144 -69.0057 -1.98785e-16 4.96962e-16 -0 -0.211393 -5.79801 4.76631 -2.18166e-07 1.88098e-07 1.7046e-06 -167.812 60.9235 87.6599 65.4004 78.5432 18.1178 -0.532231 -13.2686 18.6139 -13.2576 -68.9783 -17.331 -6.92027 -72.5829 -11.2678 0.27423 -0.0473218 3.14463 -2.18166e-07 1.88098e-07 1.7046e-06 95.2609 -21.7265 -37.3585 11.5908 -5.62596 78.2311 -1.42938 3.67557 2.94203 -166.742 68.9783 162.669 -173.08 72.5829 168.732 179.726 0.0473218 -176.855 7.95139e-16 7.95139e-16 3.18055e-15 3.97569e-16 5.96354e-16 -0 2.0308 -0.522483 12.6515 1.03516e-15 0.528321 2.83015e-15 -2.61093 -4.33729 3.56109 -3.6657 -3.89254 -8.56123 -0.013182 5.41286 0.1721 -0.918564 -16.902 -1.16402 -2.29337 -10.9335 0.749923 -178.531 -1.41374 -167.997 -179.276 -0.600381 -160.082 179.447 -1.12556 -169.995 -178 -5 -180 179.002 0.985149 179.879 -1.32386 -0.066982 5.56012 -1.5495 -6.99809 -1.11118 -5.30205 -3.9472 -3.86668 -0.0556627 -7.96299 -0.739714 0.553385 1.12556 10.0051 -0.724387 0.600381 19.9179 -1.46875 1.41374 12.0028 -2 5 -3.1661e-15 0.99792 -0.985149 -0.120973 -6.99866e-33 -1.64097e-16 -2.44364e-15 
69.6403 93.6472 -96.5339 10.7936 -0.901949 -68.7693 7.95139e-16 -1.2921e-15 -3.18055e-15 -0.283413 -5.85241 4.5098 -2.18166e-07 1.88098e-07 1.7046e-06 -166.935 60.8682 86.7724 65.1565 78.6864 18.211 -0.524172 -13.2148 18.642 -13.2576 -68.9783 -17.331 -6.92027 -72.5829 -11.2678 0.27423 -0.0473218 3.14463 -2.18166e-07 1.88098e-07 1.7046e-06 95.2786 -21.9161 -37.3416 11.609 -5.6778 78.1197 -1.27772 3.62351 2.55031 -166.742 68.9783 162.669 -173.08 72.5829 168.732 179.726 0.0473218 -176.855 -9.93129e-32 -1.78906e-15 -3.18055e-15 1.59028e-15 -9.93923e-16 -9.54166e-15 2.31992 -0.419304 12.691 0 0.528321 -0 -2.5441 -4.33712 3.37324 -3.56805 -3.90309 -8.57121 -0.0079162 5.40771 0.165415 -0.988673 -16.8784 -1.29844 -2.23643 -10.6573 0.736262 -178.531 -1.41374 -167.997 -179.276 -0.600381 -160.082 179.447 -1.12556 -169.995 -178 -5 -180 179.002 0.985149 179.879 -1.1801 0.0688168 5.33293 -1.50169 -7.25604 -1.08867 -5.36416 -3.93954 -4.00458 -0.042481 -6.91806 -0.641644 0.553385 1.12556 10.0051 -0.724387 0.600381 19.9179 -1.46875 1.41374 12.0028 -2 5 -3.1661e-15 0.99792 -0.985149 -0.120973 4.58182e-16 -1.20338e-15 -2.44364e-15 
69.6836 93.6677 -96.5292 10.863 -0.962359 -68.6223 1.98785e-16 -1.68967e-15 -0 -0.557717 -5.92396 4.55494 -2.18166e-07 1.88098e-07 1.7046e-06 -166.568 60.7607 86.4947 65.0977 78.7003 18.1741 -0.520888 -13.1782 18.6452 -13.2576 -68.9783 -17.331 -6.92027 -72.5829 -11.2678 0.27423 -0.0473218 3.14463 -2.18166e-07 1.88098e-07 1.7046e-06 95.3153 -22.1366 -37.4203 11.7514 -5.81494 78.0329 -1.01538 3.53322 1.87048 -166.742 68.9783 162.669 -173.08 72.5829 168.732 179.726 0.0473218 -176.855 3.97569e-16 -9.93923e-16 -3.18055e-15 3.97569e-16 9.93923e-16 -6.36111e-15 2.43945 -0.205457 12.6384 2.60962e-17 0.528321 -2.83015e-15 -2.72026 -4.39419 3.41146 -3.74273 -3.94474 -8.55789 -0.00294515 5.4471 0.162643 -0.986076 -17.0006 -1.21777 -1.96585 -9.34434 0.667336 -178.531 -1.41374 -167.997 -179.276 -0.600381 -160.082 179.447 -1.12556 -169.995 -178 -5 -180 179.002 0.985149 179.879 -1.31978 -0.273875 5.17601 -1.39733 -6.99454 -1.03554 -5.39772 -3.96352 -4.01395 -0.049767 -7.51077 -0.697174 0.553385 1.12556 10.0051 -0.724387 0.600381 19.9179 -1.46875 1.41374 12.0028 -2 5 3.1661e-15 0.99792 -0.985149 -0.120973 -1.52727e-16 6.56389e-16 2.44364e-15 
69.716 93.6865 -96.5502 10.8369 -0.827525 -68.5763 1.09332e-15 -3.47873e-16 -0 0.472564 -5.93896 3.03661 -2.18166e-07 1.88098e-07 1.7046e-06 -164.833 60.1807 83.8986 65.1002 78.6112 17.9247 -0.485863 -13.3021 18.9734 -13.2576 -68.9783 -17.331 -6.92027 -72.5829 -11.2678 0.27423 -0.0473218 3.14463 -2.18166e-07 1.88098e-07 1.7046e-06 94.8227 -21.4654 -37.4808 11.6818 -5.74206 78.0917 -0.805175 3.45789 1.32404 -166.742 68.9783 162.669 -173.08 72.5829 168.732 179.726 0.0473218 -176.855 7.95139e-16 2.18663e-15 6.36111e-15 3.97569e-16 9.93923e-16 6.36111e-15 1.42932 -0.0536423 13.0399 2.04423e-15 0.528321 8.49044e-15 -2.25933 -4.46047 2.19163 -3.67958 -4.02201 -8.67092 0.00458669 5.52524 0.160724 -0.860357 -17.1557 -0.870182 -1.71567 -8.134 0.598481 -178.531 -1.41374 -167.997 -179.276 -0.600381 -160.082 179.447 -1.12556 -169.995 -178 -5 -180 179.002 0.985149 179.879 -1.25602 -0.310896 5.12512 -1.33515 -6.99303 -1.00321 -5.43971 -4.03454 -4.08497 -0.0620843 -8.41776 -0.782581 0.553385 1.12556 10.0051 -0.724387 0.600381 19.9179 -1.46875 1.41374 12.0028 -2 5 -3.1661e-15 0.99792 -0.985149 -0.120973 6.10909e-16 -2.73495e-16 -0 
69.7741 93.7059 -96.5488 10.7457 -0.840962 -68.4839 2.98177e-16 3.47873e-16 -0 2.2649 -5.77498 -0.124109 -2.18166e-07 1.88098e-07 1.7046e-06 -161.938 59.1911 79.4486 65.1963 78.397 17.4718 -0.426677 -13.5452 19.5283 -13.2576 -68.9783 -17.331 -6.92027 -72.5829 -11.2678 0.27423 -0.0473218 3.14463 -2.18166e-07 1.88098e-07 1.7046e-06 94.0198 -19.9876 -37.2928 11.3757 -5.45635 78.2579 -0.688136 3.41362 1.01942 -166.742 68.9783 162.669 -173.08 72.5829 168.732 179.726 0.0473218 -176.855 7.95139e-16 -1.59028e-15 -3.18055e-15 -6.62086e-32 -1.19271e-15 -3.18055e-15 -0.747498 -0.134661 13.8042 7.33603e-16 0.528321 -2.83015e-15 -1.59723 -4.29987 -0.336382 -3.70933 -4.03129 -9.00325 0.0138757 5.64358 0.159578 -0.720899 -17.129 -0.598091 -1.70756 -8.09444 0.596159 -178.531 -1.41374 -167.997 -179.276 -0.600381 -160.082 179.447 -1.12556 -169.995 -178 -5 -180 179.002 0.985149 179.879 -1.30299 -0.24922 5.03044 -1.2783 -6.99174 -0.976368 -5.47399 -3.95769 -4.15976 -0.0573619 -8.08423 -0.751146 0.553385 1.12556 10.0051 -0.724387 0.600381 19.9179 -1.46875 1.41374 12.0028 -2 5 -0 0.99792 -0.985149 -0.120973 -3.05454e-16 3.88363e-15 -0 
